<svg width="200" height="200" viewBox="0 0 200 200" fill="none" xmlns="http://www.w3.org/2000/svg">
<rect width="200" height="200" rx="8" fill="#F2F2F2"/>
<path d="M48.08 96.072C55.248 96.9253 60.9227 99.3147 65.104 103.24C69.3707 107.165 71.504 112.029 71.504 117.832C71.504 122.269 70.224 126.28 67.664 129.864C65.104 133.448 61.5627 136.307 57.04 138.44C52.5173 140.488 47.4827 141.512 41.936 141.512C39.5467 141.512 36.816 141.384 33.744 141.128C32.5493 141.043 31.056 140.957 29.264 140.872C27.5573 140.787 25.6373 140.744 23.504 140.744L14.16 140.872C12.4533 140.957 10.1493 141 7.248 141C6.992 141 6.864 140.744 6.864 140.232C6.864 139.72 6.992 139.464 7.248 139.464C9.72267 139.464 11.6 139.251 12.88 138.824C14.16 138.312 15.056 137.459 15.568 136.264C16.1653 134.984 16.464 133.107 16.464 130.632V71.368C16.464 67.784 15.8667 65.4373 14.672 64.328C13.4773 63.1333 11.0453 62.536 7.376 62.536C7.20533 62.536 7.12 62.28 7.12 61.768C7.12 61.256 7.20533 61 7.376 61L14.16 61.128C18.0853 61.2987 21.2 61.384 23.504 61.384C25.8933 61.384 28.368 61.256 30.928 61C31.7813 60.9147 33.0613 60.8293 34.768 60.744C36.4747 60.6587 37.968 60.616 39.248 60.616C47.0133 60.616 53.0293 62.024 57.296 64.84C61.5627 67.656 63.696 71.752 63.696 77.128C63.696 81.224 62.3307 84.936 59.6 88.264C56.9547 91.592 53.1147 94.1947 48.08 96.072ZM37.328 63.432C34.8533 63.432 33.1467 64.0293 32.208 65.224C31.2693 66.3333 30.8 68.4667 30.8 71.624V95.944L35.92 96.072C40.3573 96.072 43.7707 94.408 46.16 91.08C48.5493 87.752 49.744 83.4853 49.744 78.28C49.744 73.416 48.6773 69.7467 46.544 67.272C44.4107 64.712 41.3387 63.432 37.328 63.432ZM39.76 138.312C50.9387 138.312 56.528 132.509 56.528 120.904C56.528 114.333 54.9493 109.128 51.792 105.288C48.6347 101.448 43.856 99.528 37.456 99.528C34.9813 99.528 32.7627 99.6133 30.8 99.784V130.632C30.8 133.448 31.3547 135.453 32.464 136.648C33.5733 137.757 36.0053 138.312 39.76 138.312ZM184.749 139.464C184.92 139.464 185.005 139.72 185.005 140.232C185.005 140.744 184.92 141 184.749 141C181.848 141 179.544 140.957 177.837 140.872L168.365 140.744L158.765 140.872C157.144 140.957 154.925 141 152.109 141C151.853 141 151.725 140.744 151.725 140.232C151.725 139.72 151.853 139.464 152.109 139.464C155.693 139.464 158.125 139.037 159.405 138.184C160.685 137.331 161.325 135.539 161.325 132.808L161.197 130.632L158.509 78.28L132.141 140.104C131.97 140.445 131.629 140.616 131.117 140.616C130.605 140.616 130.264 140.445 130.093 140.104L97.709 78.536L96.685 124.744C96.5997 129.352 97.4957 132.979 99.373 135.624C101.336 138.184 104.066 139.464 107.565 139.464C107.821 139.464 107.949 139.72 107.949 140.232C107.949 140.744 107.821 141 107.565 141C105.261 141 103.469 140.957 102.189 140.872L95.149 140.744L87.085 140.872C85.7197 140.957 83.885 141 81.581 141C81.325 141 81.197 140.744 81.197 140.232C81.197 139.72 81.325 139.464 81.581 139.464C85.0797 139.464 87.853 138.141 89.901 135.496C91.949 132.851 93.0157 129.267 93.101 124.744L94.253 71.752L94.125 71.624C92.4183 68.4667 90.6263 66.1627 88.749 64.712C86.957 63.2613 84.8663 62.536 82.477 62.536C82.221 62.536 82.093 62.28 82.093 61.768C82.093 61.256 82.221 61 82.477 61L88.493 61.128C89.6877 61.2133 91.2237 61.256 93.101 61.256L99.885 61.128C100.653 61.0427 101.634 61 102.829 61C103.938 61 104.792 61.384 105.389 62.152C105.986 62.92 107.096 64.7547 108.717 67.656L136.621 120.008L160.941 64.2C161.453 63.0053 161.965 62.1947 162.477 61.768C163.074 61.256 163.842 61 164.781 61C165.549 61 166.402 61.0427 167.341 61.128C168.365 61.2133 169.517 61.256 170.797 61.256L178.349 61.128C179.544 61.0427 181.25 61 183.469 61C183.725 61 183.853 61.256 183.853 61.768C183.853 62.28 183.725 62.536 183.469 62.536C179.458 62.536 176.557 63.3467 174.765 64.968C172.973 66.5893 172.162 69.1067 172.333 72.52L175.405 130.632C175.576 133.277 175.874 135.197 176.301 136.392C176.813 137.587 177.666 138.397 178.861 138.824C180.141 139.251 182.104 139.464 184.749 139.464Z" fill="#010101"/>
</svg>
